# xmcd CD database file
#
# Track frame offsets:
#	183
#	14013
#	25938
#	41330
#	56865
#	70648
#	97568
#	108733
#	125945
#	159573
#	176205
#	193013
#	211298
#
# Disc length: 2896 seconds
#
# Revision: 1
# Processed by: cddbd v1.5.2PL0 Copyright (c) Steve Scherf et al.
# Submitted via: CDex 1.51
#
DISCID=b80b4e0d
DTITLE=The Black Cadillac Blues Band - No, No Baby
DYEAR=1992
DGENRE=Blues
TTITLE0=If you love me like you say
TTITLE1=Fantasized
TTITLE2=T-Bone Shuffle
TTITLE3=I got the Blues
TTITLE4=You're killing me
TTITLE5=Summertime
TTITLE6=No, No Baby
TTITLE7=I feel so good
TTITLE8=Thinking about my life
TTITLE9=Love is getting cold
TTITLE10=Phone Booth
TTITLE11=Axeman
TTITLE12=Summertime Blues
EXTD=YEAR: 1992
EXTT0=
EXTT1=
EXTT2=
EXTT3=
EXTT4=
EXTT5=
EXTT6=
EXTT7=
EXTT8=
EXTT9=
EXTT10=
EXTT11=
EXTT12=
PLAYORDER=
